<svg xmlns="http://www.w3.org/2000/svg" width="24" height="25" viewBox="0 0 24 25" fill="none">
  <path fillRule="evenodd" clip-rule="evenodd" d="M18 21.5H6C4.343 21.5 3 20.157 3 18.5V6.5C3 4.843 4.343 3.5 6 3.5H18C19.657 3.5 21 4.843 21 6.5V18.5C21 20.157 19.657 21.5 18 21.5Z" stroke="#3F47CC" stroke-width="1.8" stroke-linecap="round" stroke-linejoin="round"/>
  <path d="M3 17.986L7.612 13.374C8.003 12.983 8.636 12.983 9.026 13.374L10.432 14.78L15.009 10.204C15.4 9.81302 16.033 9.81302 16.423 10.204L21 14.781" stroke="#3F47CC" stroke-width="1.8" stroke-linecap="round" stroke-linejoin="round"/>
  <path d="M8.51517 7.90683C8.66161 8.05328 8.66161 8.29072 8.51517 8.43716C8.36872 8.58361 8.13128 8.58361 7.98483 8.43716C7.83839 8.29072 7.83839 8.05328 7.98483 7.90683C8.13128 7.76039 8.36872 7.76039 8.51517 7.90683" stroke="#3F47CC" stroke-width="1.8" stroke-linecap="round" stroke-linejoin="round"/>
</svg>